<svg width="34" height="34" viewBox="0 0 34 34" fill="none" xmlns="http://www.w3.org/2000/svg">
<path d="M24.6422 18.6667C25.8922 18.6667 26.9922 17.9833 27.5589 16.95L33.5255 6.13333C34.1422 5.03333 33.3422 3.66666 32.0755 3.66666H7.40888L5.84221 0.333328H0.392212V3.66666H3.72555L9.72554 16.3167L7.47554 20.3833C6.25888 22.6167 7.85888 25.3333 10.3922 25.3333H30.3922V22H10.3922L12.2255 18.6667H24.6422ZM8.99221 6.99999H29.2422L24.6422 15.3333H12.9422L8.99221 6.99999ZM10.3922 27C8.55888 27 7.07555 28.5 7.07555 30.3333C7.07555 32.1667 8.55888 33.6667 10.3922 33.6667C12.2255 33.6667 13.7255 32.1667 13.7255 30.3333C13.7255 28.5 12.2255 27 10.3922 27ZM27.0589 27C25.2255 27 23.7422 28.5 23.7422 30.3333C23.7422 32.1667 25.2255 33.6667 27.0589 33.6667C28.8922 33.6667 30.3922 32.1667 30.3922 30.3333C30.3922 28.5 28.8922 27 27.0589 27Z" fill="white"/>
</svg>
