<svg width="30" height="29" viewBox="0 0 30 29" fill="none" xmlns="http://www.w3.org/2000/svg">
<path d="M21.559 18.3334H20.2423L19.7757 17.8834C21.7757 15.55 22.809 12.3667 22.2423 8.98335C21.459 4.35002 17.5923 0.65002 12.9257 0.0833536C5.87565 -0.783313 -0.0576813 5.15002 0.808985 12.2C1.37565 16.8667 5.07565 20.7334 9.70899 21.5167C13.0923 22.0834 16.2757 21.05 18.609 19.05L19.059 19.5167V20.8334L26.1423 27.9167C26.8257 28.6 27.9423 28.6 28.6257 27.9167C29.309 27.2334 29.309 26.1167 28.6257 25.4334L21.559 18.3334ZM11.559 18.3334C7.40899 18.3334 4.05899 14.9834 4.05899 10.8334C4.05899 6.68335 7.40899 3.33335 11.559 3.33335C15.709 3.33335 19.059 6.68335 19.059 10.8334C19.059 14.9834 15.709 18.3334 11.559 18.3334Z" fill="white"/>
</svg>
